<svg version="1.1" id="Layer_1" xmlns="http://www.w3.org/2000/svg" xmlns:xlink="http://www.w3.org/1999/xlink" x="0px" y="0px"
	 width="100%" viewBox="0 0 1024 1024" enable-background="new 0 0 1024 1024" xml:space="preserve">
<path fill="#FEFEFE" opacity="1.000000" stroke="none" 
	d="
M467.000000,1025.000000 
	C311.333344,1025.000000 156.166672,1025.000000 1.000000,1025.000000 
	C1.000000,683.666687 1.000000,342.333344 1.000000,1.000000 
	C342.333344,1.000000 683.666687,1.000000 1025.000000,1.000000 
	C1025.000000,342.333344 1025.000000,683.666687 1025.000000,1025.000000 
	C839.166687,1025.000000 653.333313,1025.000000 467.000000,1025.000000 
M171.978653,801.021179 
	C171.978653,801.021179 171.904510,801.038879 172.049988,801.563721 
	C172.347382,801.752502 172.644760,801.941284 172.954697,802.048096 
	C172.954697,802.048096 172.872101,802.055908 173.001495,802.604126 
	C173.313690,802.782959 173.625900,802.961792 173.946579,803.052063 
	C173.946579,803.052063 173.858765,803.066589 174.019791,803.591431 
	C174.331406,803.765198 174.643021,803.938965 174.973648,804.029419 
	C174.973648,804.029419 174.897476,804.067993 175.150589,804.690002 
	C177.751358,806.817322 180.352127,808.944641 182.988953,810.998779 
	C182.988953,810.998779 182.927429,811.052490 183.186310,811.587036 
	C183.700760,811.858765 184.215210,812.130493 184.807648,812.187439 
	C184.807648,812.187439 184.666031,812.366760 184.997009,812.934265 
	C188.659500,815.298462 192.321991,817.662659 195.993896,819.996338 
	C195.993896,819.996338 195.969666,820.019958 196.374649,820.571411 
	C201.581543,823.056396 206.788452,825.541443 212.202972,828.239929 
	C212.202972,828.239929 212.498199,828.200806 212.953262,828.759827 
	C214.296097,829.170532 215.638931,829.581177 217.243851,830.222168 
	C217.243851,830.222168 217.592026,830.199097 218.095749,830.754456 
	C220.005188,831.286804 221.914612,831.819153 223.884537,832.243408 
	C223.884537,832.243408 223.765182,832.276489 224.273651,832.813110 
	C235.558273,834.639648 246.827728,837.929382 258.130096,838.046692 
	C316.068207,838.648132 374.014832,838.439758 431.958466,838.488586 
	C436.276581,838.492249 440.594910,838.293152 445.845947,838.536987 
	C449.309723,838.426270 452.773529,838.315613 456.865906,838.490112 
	C470.148438,838.402344 483.430969,838.314575 497.834625,838.535889 
	C501.302155,838.433899 504.769653,838.331909 508.866425,838.508240 
	C513.826660,838.420349 518.786926,838.332458 524.808105,838.549500 
	C530.611206,838.445801 536.414368,838.342102 542.853271,838.516541 
	C591.269348,838.518982 639.685486,838.561829 688.101501,838.508179 
	C715.873901,838.477417 743.646240,838.289978 772.497864,838.122009 
	C809.233459,835.240906 840.292175,821.014893 863.756226,791.993896 
	C898.997498,748.406555 902.386719,692.812256 874.304138,644.888977 
	C848.976501,601.666992 822.332581,559.214783 796.159119,516.490479 
	C768.505981,471.350891 740.774292,426.259216 712.981628,381.205353 
	C686.241821,337.858337 659.386963,294.582214 632.569092,251.283356 
	C619.850586,230.748642 603.947449,213.287781 583.064636,200.790665 
	C554.379517,183.624359 523.479187,177.574997 490.463440,183.082520 
	C460.735565,188.041565 435.476562,201.466751 414.776123,223.465912 
	C402.218964,236.810944 393.164581,252.579895 383.653290,268.017853 
	C341.847626,335.873474 300.135010,403.786377 258.414124,471.694183 
	C249.005371,487.008575 239.698853,502.385773 229.902527,518.343994 
	C217.542114,538.441040 205.181686,558.538025 192.289398,578.982910 
	C192.050812,579.563049 191.812241,580.143127 191.813950,580.797424 
	C191.813950,580.797424 191.603195,580.660217 191.103378,580.955322 
	C190.765793,581.634583 190.428207,582.313843 189.827377,583.206055 
	C189.827377,583.206055 189.800079,583.543640 189.305435,583.872864 
	C189.192108,584.245789 189.078781,584.618652 189.004929,584.996216 
	C189.004929,584.996216 188.981033,584.964417 188.435349,585.275208 
	C187.972427,586.193970 187.509506,587.112732 186.811798,588.184692 
	C186.811798,588.184692 186.827637,588.464600 186.239685,588.826904 
	C185.727127,589.826172 185.214554,590.825500 184.849304,591.890381 
	C184.849304,591.890381 184.749237,591.763916 184.240372,592.051636 
	C183.997940,592.574402 183.755508,593.097229 183.961212,593.997009 
	C183.808197,593.875671 183.655167,593.754333 183.007187,594.023071 
	C182.524216,594.960327 182.041229,595.897644 181.200592,597.091309 
	C181.021362,597.339539 180.939240,597.616516 180.389755,598.207886 
	C179.924561,599.136780 179.459381,600.065613 179.000000,601.000000 
	C179.000000,601.000000 178.994385,600.994385 178.421921,601.318604 
	C177.606491,602.874939 176.791061,604.431274 176.002914,605.997131 
	C176.002914,605.997131 175.984451,605.973633 175.435760,606.276367 
	C174.981033,607.194397 174.526306,608.112488 174.000259,609.026489 
	C174.000259,609.026489 174.041321,609.084961 173.470825,609.396240 
	C172.648270,610.934387 171.825714,612.472473 171.001221,614.001465 
	C171.001221,614.001465 171.008835,613.998779 170.487137,614.333618 
	C170.041443,615.243042 169.595749,616.152405 169.041382,617.079956 
	C169.041382,617.079956 169.081940,617.182373 168.543579,617.474365 
	C168.209839,618.207397 167.876099,618.940430 167.965790,619.867432 
	C167.965790,619.867432 167.557678,619.643005 167.046600,620.016541 
	C166.353577,621.340881 165.660568,622.665161 165.006256,623.994202 
	C165.006256,623.994202 164.983276,623.962585 164.411026,624.317322 
	C161.928818,628.541748 159.446625,632.766235 157.006897,636.994629 
	C157.006897,636.994629 156.983810,636.958801 156.404175,637.314575 
	C143.681519,658.241821 135.670929,680.668152 134.700821,705.348816 
	C133.940491,724.692322 136.689407,743.380310 145.006516,761.012817 
	C145.006516,761.012817 144.952866,761.018677 144.978210,761.761841 
	C146.967438,765.533997 148.956680,769.306152 150.994720,773.012939 
	C150.994720,773.012939 150.918350,773.041626 150.959396,773.682800 
	C151.568512,774.529053 152.177612,775.375244 152.833939,776.122681 
	C152.833939,776.122681 152.725601,776.138611 152.810425,776.740356 
	C153.186340,777.187744 153.562256,777.635132 153.998672,778.013428 
	C153.998672,778.013428 153.916580,778.054443 154.023743,778.748108 
	C158.693268,784.820496 163.362793,790.892822 168.000000,797.000000 
	C168.000000,797.000000 168.034973,796.968323 168.206238,797.574341 
	C169.116135,798.413025 170.026031,799.251648 170.982895,800.017517 
	C170.982895,800.017517 170.900482,800.044250 171.049667,800.568481 
	C171.353912,800.744202 171.658173,800.919922 171.978653,801.021179 
z"/>
<path fill="#06F4CC" opacity="1.000000" stroke="none" 
	d="
M542.217468,838.238403 
	C536.414368,838.342102 530.611206,838.445801 524.016479,838.408203 
	C518.228943,838.254517 513.233093,838.242188 508.237183,838.229858 
	C504.769653,838.331909 501.302155,838.433899 497.016174,838.403442 
	C482.877594,838.249023 469.557434,838.226990 456.237305,838.204895 
	C452.773529,838.315613 449.309723,838.426270 445.380127,838.159912 
	C444.665802,837.494507 444.417267,837.206055 444.006104,836.608826 
	C429.002106,812.402039 414.099854,788.541504 399.351929,764.585999 
	C394.071655,756.009094 389.164398,747.202637 384.527954,738.365601 
	C386.300415,738.195068 387.631866,738.129272 388.963318,738.128906 
	C456.768860,738.110291 524.574402,738.092224 592.379944,738.085022 
	C645.025085,738.079468 697.670349,738.057800 750.315369,738.118164 
	C759.937256,738.129150 768.358032,735.278137 775.175903,728.416077 
	C787.593018,715.918579 788.853882,698.931458 778.688965,682.645569 
	C770.495422,669.517883 762.248840,656.423401 754.062866,643.291077 
	C705.747314,565.781860 657.460083,488.255066 609.111450,410.766602 
	C603.311768,401.471497 597.198792,392.371857 591.095764,382.845642 
	C585.298828,373.365662 579.718201,364.170197 573.949951,355.093933 
	C569.350769,347.857239 564.522888,340.765900 559.713013,333.292023 
	C554.339050,324.141144 549.318665,315.132538 543.705688,306.509583 
	C529.174011,284.185089 497.837280,283.996368 483.532928,306.490845 
	C461.662079,340.884094 440.413452,375.672485 418.811646,410.237488 
	C381.422546,470.063629 343.986511,529.860535 306.510895,589.632507 
	C301.580902,597.495605 296.302612,605.140381 290.893494,612.719971 
	C274.485382,586.977600 258.392120,561.387085 242.236832,535.835815 
	C238.379272,529.734680 234.314667,523.764465 230.345276,517.734070 
	C239.698853,502.385773 249.005371,487.008575 258.414124,471.694183 
	C300.135010,403.786377 341.847626,335.873474 383.653290,268.017853 
	C393.164581,252.579895 402.218964,236.810944 414.776123,223.465912 
	C435.476562,201.466751 460.735565,188.041565 490.463440,183.082520 
	C523.479187,177.574997 554.379517,183.624359 583.064636,200.790665 
	C603.947449,213.287781 619.850586,230.748642 632.569092,251.283356 
	C659.386963,294.582214 686.241821,337.858337 712.981628,381.205353 
	C740.774292,426.259216 768.505981,471.350891 796.159119,516.490479 
	C822.332581,559.214783 848.976501,601.666992 874.304138,644.888977 
	C902.386719,692.812256 898.997498,748.406555 863.756226,791.993896 
	C840.292175,821.014893 809.233459,835.240906 771.683289,838.214050 
	C762.547974,838.313965 754.227234,838.331604 745.906494,838.328247 
	C678.010132,838.300476 610.113831,838.268799 542.217468,838.238403 
z"/>
<path fill="#039A93" opacity="1.000000" stroke="none" 
	d="
M230.123901,518.039062 
	C234.314667,523.764465 238.379272,529.734680 242.236832,535.835815 
	C258.392120,561.387085 274.485382,586.977600 290.845825,613.092285 
	C285.435242,622.819580 279.812347,632.028259 274.118073,641.192688 
	C264.823822,656.151062 254.934097,670.770813 246.287277,686.092957 
	C232.426056,710.655029 248.705536,737.930298 276.790924,737.983521 
	C307.578979,738.041870 338.367188,737.996704 369.155273,738.049805 
	C374.132721,738.058350 379.109711,738.343567 384.086914,738.500854 
	C389.164398,747.202637 394.071655,756.009094 399.351929,764.585999 
	C414.099854,788.541504 429.002106,812.402039 443.546692,836.640625 
	C440.835327,836.992004 438.420776,837.002747 435.537018,837.007202 
	C377.711426,837.004517 320.355042,837.008057 262.536133,837.008789 
	C255.323181,836.388306 248.553574,835.927246 241.827881,835.106262 
	C235.781921,834.368286 229.784180,833.235291 223.765182,832.276489 
	C223.765182,832.276489 223.884537,832.243408 223.730103,831.930176 
	C221.581131,831.144287 219.586578,830.671692 217.592026,830.199097 
	C217.592026,830.199097 217.243851,830.222168 216.945877,829.773010 
	C215.264664,828.949524 213.881439,828.575134 212.498199,828.200806 
	C212.498199,828.200806 212.202972,828.239929 212.050873,827.783020 
	C206.589066,824.890747 201.279358,822.455322 195.969666,820.019958 
	C195.969666,820.019958 195.993896,819.996338 195.964737,819.656189 
	C192.512375,816.459045 190.191956,811.813782 184.666031,812.366760 
	C184.666031,812.366760 184.807648,812.187439 184.728638,811.966003 
	C184.075562,811.513855 183.501495,811.283142 182.927429,811.052490 
	C182.927429,811.052490 182.988953,810.998779 182.961700,810.682190 
	C180.255463,808.266357 177.576477,806.167175 174.897491,804.067993 
	C174.897476,804.067993 174.973648,804.029419 174.876129,803.811829 
	C174.471985,803.418396 174.165375,803.242493 173.858765,803.066589 
	C173.858765,803.066589 173.946579,803.052063 173.863205,802.833191 
	C173.477264,802.428162 173.174683,802.242004 172.872101,802.055908 
	C172.872101,802.055908 172.954697,802.048096 172.871918,801.828735 
	C172.494278,801.419250 172.199402,801.229065 171.904510,801.038879 
	C171.904510,801.038879 171.978653,801.021179 171.883392,800.805176 
	C171.492249,800.407532 171.196365,800.225891 170.900482,800.044250 
	C170.900482,800.044250 170.982895,800.017517 171.011292,799.727417 
	C172.046997,796.169678 169.527298,797.194153 168.034973,796.968323 
	C168.034973,796.968323 168.000000,797.000000 168.013306,796.617432 
	C163.809021,790.250305 159.603134,784.257385 155.337296,778.307495 
	C155.136551,778.027527 154.402344,778.130005 153.916580,778.054443 
	C153.916580,778.054443 153.998672,778.013428 153.973358,777.723999 
	C153.540543,777.002625 153.133057,776.570618 152.725586,776.138611 
	C152.725601,776.138611 152.833939,776.122681 152.878632,775.798096 
	C152.254990,774.662842 151.586655,773.852234 150.918335,773.041626 
	C150.918350,773.041626 150.994720,773.012939 150.998627,772.655029 
	C148.985962,768.537659 146.969406,764.778137 144.952850,761.018677 
	C144.952866,761.018677 145.006516,761.012817 145.013641,760.615356 
	C144.283737,757.010620 143.832855,753.703796 142.758835,750.613525 
	C138.674927,738.863098 136.616974,726.767700 135.985184,714.382019 
	C135.415558,703.214844 136.914078,692.238464 140.008987,681.602417 
	C142.898819,671.671082 146.614502,661.968445 150.241333,652.267822 
	C152.190903,647.053406 154.717560,642.054810 156.983810,636.958801 
	C156.983810,636.958801 157.006897,636.994629 157.341125,636.966125 
	C160.111313,632.612610 162.547287,628.287598 164.983276,623.962585 
	C164.983276,623.962585 165.006256,623.994202 165.343185,623.950317 
	C166.305969,622.485291 166.931824,621.064148 167.557678,619.643005 
	C167.557678,619.643005 167.965790,619.867432 168.093506,619.740967 
	C168.508133,618.803772 168.795044,617.993103 169.081940,617.182373 
	C169.081940,617.182373 169.041382,617.079956 169.428162,616.997620 
	C170.212906,615.943115 170.610870,614.970947 171.008835,613.998779 
	C171.008835,613.998779 171.001221,614.001465 171.366455,613.969482 
	C172.501572,612.319946 173.271439,610.702454 174.041321,609.084961 
	C174.041321,609.084961 174.000259,609.026489 174.377151,608.969482 
	C175.164185,607.932922 175.574310,606.953247 175.984451,605.973633 
	C175.984451,605.973633 176.002914,605.997131 176.341934,605.951416 
	C177.452087,604.268616 178.223236,602.631531 178.994385,600.994385 
	C178.994385,600.994385 179.000000,601.000000 179.349411,600.949524 
	C180.117294,599.906799 180.535767,598.914612 180.954239,597.922363 
	C180.939240,597.616516 181.021362,597.339539 181.749420,596.903687 
	C182.699554,595.688416 183.100845,594.660645 183.502121,593.632935 
	C183.655167,593.754333 183.808197,593.875671 184.084229,593.793030 
	C184.387909,592.980652 184.568558,592.372314 184.749237,591.763916 
	C184.749237,591.763916 184.849304,591.890381 185.143204,591.774902 
	C185.900604,590.594543 186.364120,589.529541 186.827637,588.464600 
	C186.827637,588.464600 186.811798,588.184692 187.274200,588.049194 
	C188.151413,586.930542 188.566223,585.947510 188.981018,584.964417 
	C188.981033,584.964417 189.004929,584.996216 189.237854,584.830933 
	C189.580536,584.291626 189.690323,583.917603 189.800079,583.543640 
	C189.800079,583.543640 189.827377,583.206055 190.295593,583.046509 
	C191.043610,582.144653 191.323410,581.402466 191.603210,580.660217 
	C191.603195,580.660217 191.813950,580.797424 192.046021,580.688843 
	C192.459152,579.931824 192.640198,579.283447 192.821259,578.635010 
	C205.181686,558.538025 217.542114,538.441040 230.123901,518.039062 
z"/>
<path fill="#279087" opacity="1.000000" stroke="none" 
	d="
M224.019409,832.544800 
	C229.784180,833.235291 235.781921,834.368286 241.827881,835.106262 
	C248.553574,835.927246 255.323181,836.388306 262.842773,837.286560 
	C264.594025,837.682434 265.576172,837.898376 266.558380,837.898682 
	C321.630493,837.913818 376.702606,837.917664 431.774689,837.872375 
	C433.185425,837.871216 434.595703,837.312317 436.006195,837.013428 
	C438.420776,837.002747 440.835327,836.992004 443.709320,836.949463 
	C444.417267,837.206055 444.665802,837.494507 444.913727,837.985596 
	C440.594910,838.293152 436.276581,838.492249 431.958466,838.488586 
	C374.014832,838.439758 316.068207,838.648132 258.130096,838.046692 
	C246.827728,837.929382 235.558273,834.639648 224.019409,832.544800 
z"/>
<path fill="#279087" opacity="1.000000" stroke="none" 
	d="
M156.694000,637.136719 
	C154.717560,642.054810 152.190903,647.053406 150.241333,652.267822 
	C146.614502,661.968445 142.898819,671.671082 140.008987,681.602417 
	C136.914078,692.238464 135.415558,703.214844 135.985184,714.382019 
	C136.616974,726.767700 138.674927,738.863098 142.758835,750.613525 
	C143.832855,753.703796 144.283737,757.010620 144.995453,760.635376 
	C136.689407,743.380310 133.940491,724.692322 134.700821,705.348816 
	C135.670929,680.668152 143.681519,658.241821 156.694000,637.136719 
z"/>
<path fill="#279087" opacity="1.000000" stroke="none" 
	d="
M542.535400,838.377441 
	C610.113831,838.268799 678.010132,838.300476 745.906494,838.328247 
	C754.227234,838.331604 762.547974,838.313965 771.143677,838.239563 
	C743.646240,838.289978 715.873901,838.477417 688.101501,838.508179 
	C639.685486,838.561829 591.269348,838.518982 542.535400,838.377441 
z"/>
<path fill="#279087" opacity="1.000000" stroke="none" 
	d="
M153.970154,778.401245 
	C154.402344,778.130005 155.136551,778.027527 155.337296,778.307495 
	C159.603134,784.257385 163.809021,790.250305 168.029449,796.599976 
	C163.362793,790.892822 158.693268,784.820496 153.970154,778.401245 
z"/>
<path fill="#279087" opacity="1.000000" stroke="none" 
	d="
M456.551605,838.347534 
	C469.557434,838.226990 482.877594,838.249023 496.455627,838.248962 
	C483.430969,838.314575 470.148438,838.402344 456.551605,838.347534 
z"/>
<path fill="#279087" opacity="1.000000" stroke="none" 
	d="
M196.172150,820.295654 
	C201.279358,822.455322 206.589066,824.890747 211.947052,827.676270 
	C206.788452,825.541443 201.581543,823.056396 196.172150,820.295654 
z"/>
<path fill="#279087" opacity="1.000000" stroke="none" 
	d="
M164.697144,624.139954 
	C162.547287,628.287598 160.111313,632.612610 157.319885,636.964172 
	C159.446625,632.766235 161.928818,628.541748 164.697144,624.139954 
z"/>
<path fill="#279087" opacity="1.000000" stroke="none" 
	d="
M184.831512,812.650513 
	C190.191956,811.813782 192.512375,816.459045 195.960037,819.671448 
	C192.321991,817.662659 188.659500,815.298462 184.831512,812.650513 
z"/>
<path fill="#279087" opacity="1.000000" stroke="none" 
	d="
M144.965530,761.390259 
	C146.969406,764.778137 148.985962,768.537659 150.974213,772.687744 
	C148.956680,769.306152 146.967438,765.533997 144.965530,761.390259 
z"/>
<path fill="#279087" opacity="1.000000" stroke="none" 
	d="
M175.024048,804.379028 
	C177.576477,806.167175 180.255463,808.266357 182.943665,810.718750 
	C180.352127,808.944641 177.751358,806.817322 175.024048,804.379028 
z"/>
<path fill="#279087" opacity="1.000000" stroke="none" 
	d="
M508.551819,838.369019 
	C513.233093,838.242188 518.228943,838.254517 523.485962,838.255676 
	C518.786926,838.332458 513.826660,838.420349 508.551819,838.369019 
z"/>
<path fill="#279087" opacity="1.000000" stroke="none" 
	d="
M173.756073,609.240601 
	C173.271439,610.702454 172.501572,612.319946 171.367432,613.973999 
	C171.825714,612.472473 172.648270,610.934387 173.756073,609.240601 
z"/>
<path fill="#279087" opacity="1.000000" stroke="none" 
	d="
M178.708160,601.156494 
	C178.223236,602.631531 177.452087,604.268616 176.328293,605.946716 
	C176.791061,604.431274 177.606491,602.874939 178.708160,601.156494 
z"/>
<path fill="#279087" opacity="1.000000" stroke="none" 
	d="
M217.843887,830.476807 
	C219.586578,830.671692 221.581131,831.144287 223.699860,831.984253 
	C221.914612,831.819153 220.005188,831.286804 217.843887,830.476807 
z"/>
<path fill="#279087" opacity="1.000000" stroke="none" 
	d="
M167.302155,619.829773 
	C166.931824,621.064148 166.305969,622.485291 165.323837,623.947998 
	C165.660568,622.665161 166.353577,621.340881 167.302155,619.829773 
z"/>
<path fill="#279087" opacity="1.000000" stroke="none" 
	d="
M168.120605,797.271362 
	C169.527298,797.194153 172.046997,796.169678 170.987808,799.763855 
	C170.026031,799.251648 169.116135,798.413025 168.120605,797.271362 
z"/>
<path fill="#279087" opacity="1.000000" stroke="none" 
	d="
M212.725739,828.480347 
	C213.881439,828.575134 215.264664,828.949524 216.814835,829.657837 
	C215.638931,829.581177 214.296097,829.170532 212.725739,828.480347 
z"/>
<path fill="#279087" opacity="1.000000" stroke="none" 
	d="
M150.938873,773.362183 
	C151.586655,773.852234 152.254990,774.662842 152.855011,775.847473 
	C152.177612,775.375244 151.568512,774.529053 150.938873,773.362183 
z"/>
<path fill="#279087" opacity="1.000000" stroke="none" 
	d="
M188.708191,585.119812 
	C188.566223,585.947510 188.151413,586.930542 187.391602,587.972534 
	C187.509506,587.112732 187.972427,586.193970 188.708191,585.119812 
z"/>
<path fill="#279087" opacity="1.000000" stroke="none" 
	d="
M186.533661,588.645752 
	C186.364120,589.529541 185.900604,590.594543 185.069550,591.742126 
	C185.214554,590.825500 185.727127,589.826172 186.533661,588.645752 
z"/>
<path fill="#279087" opacity="1.000000" stroke="none" 
	d="
M183.254654,593.828003 
	C183.100845,594.660645 182.699554,595.688416 181.928253,596.775513 
	C182.041229,595.897644 182.524216,594.960327 183.254654,593.828003 
z"/>
<path fill="#279087" opacity="1.000000" stroke="none" 
	d="
M170.747986,614.166199 
	C170.610870,614.970947 170.212906,615.943115 169.482483,616.988525 
	C169.595749,616.152405 170.041443,615.243042 170.747986,614.166199 
z"/>
<path fill="#279087" opacity="1.000000" stroke="none" 
	d="
M180.671997,598.065125 
	C180.535767,598.914612 180.117294,599.906799 179.346512,600.946777 
	C179.459381,600.065613 179.924561,599.136780 180.671997,598.065125 
z"/>
<path fill="#279087" opacity="1.000000" stroke="none" 
	d="
M175.710114,606.125000 
	C175.574310,606.953247 175.164185,607.932922 174.412811,608.971558 
	C174.526306,608.112488 174.981033,607.194397 175.710114,606.125000 
z"/>
<path fill="#279087" opacity="1.000000" stroke="none" 
	d="
M191.353302,580.807739 
	C191.323410,581.402466 191.043610,582.144653 190.427216,582.939941 
	C190.428207,582.313843 190.765793,581.634583 191.353302,580.807739 
z"/>
<path fill="#279087" opacity="1.000000" stroke="none" 
	d="
M168.812775,617.328369 
	C168.795044,617.993103 168.508133,618.803772 167.881805,619.644043 
	C167.876099,618.940430 168.209839,618.207397 168.812775,617.328369 
z"/>
<path fill="#279087" opacity="1.000000" stroke="none" 
	d="
M183.056885,811.319763 
	C183.501495,811.283142 184.075562,811.513855 184.689651,812.073364 
	C184.215210,812.130493 183.700760,811.858765 183.056885,811.319763 
z"/>
<path fill="#279087" opacity="1.000000" stroke="none" 
	d="
M152.768005,776.439453 
	C153.133057,776.570618 153.540543,777.002625 153.943115,777.758545 
	C153.562256,777.635132 153.186340,777.187744 152.768005,776.439453 
z"/>
<path fill="#279087" opacity="1.000000" stroke="none" 
	d="
M184.494797,591.907776 
	C184.568558,592.372314 184.387909,592.980652 183.860168,593.604492 
	C183.755508,593.097229 183.997940,592.574402 184.494797,591.907776 
z"/>
<path fill="#279087" opacity="1.000000" stroke="none" 
	d="
M192.555313,578.808960 
	C192.640198,579.283447 192.459152,579.931824 191.925873,580.651733 
	C191.812241,580.143127 192.050812,579.563049 192.555313,578.808960 
z"/>
<path fill="#279087" opacity="1.000000" stroke="none" 
	d="
M173.939270,803.328979 
	C174.165375,803.242493 174.471985,803.418396 174.866608,803.853455 
	C174.643021,803.938965 174.331406,803.765198 173.939270,803.328979 
z"/>
<path fill="#279087" opacity="1.000000" stroke="none" 
	d="
M172.936798,802.330017 
	C173.174683,802.242004 173.477264,802.428162 173.858963,802.877502 
	C173.625900,802.961792 173.313690,802.782959 172.936798,802.330017 
z"/>
<path fill="#279087" opacity="1.000000" stroke="none" 
	d="
M171.977249,801.301270 
	C172.199402,801.229065 172.494278,801.419250 172.865646,801.869751 
	C172.644760,801.941284 172.347382,801.752502 171.977249,801.301270 
z"/>
<path fill="#279087" opacity="1.000000" stroke="none" 
	d="
M170.975067,800.306396 
	C171.196365,800.225891 171.492249,800.407532 171.875275,800.842407 
	C171.658173,800.919922 171.353912,800.744202 170.975067,800.306396 
z"/>
<path fill="#279087" opacity="1.000000" stroke="none" 
	d="
M189.552765,583.708252 
	C189.690323,583.917603 189.580536,584.291626 189.218109,584.828613 
	C189.078781,584.618652 189.192108,584.245789 189.552765,583.708252 
z"/>
<path fill="#FCFEFE" opacity="1.000000" stroke="none" 
	d="
M384.527954,738.365601 
	C379.109711,738.343567 374.132721,738.058350 369.155273,738.049805 
	C338.367188,737.996704 307.578979,738.041870 276.790924,737.983521 
	C248.705536,737.930298 232.426056,710.655029 246.287277,686.092957 
	C254.934097,670.770813 264.823822,656.151062 274.118073,641.192688 
	C279.812347,632.028259 285.435242,622.819580 291.137939,613.258545 
	C296.302612,605.140381 301.580902,597.495605 306.510895,589.632507 
	C343.986511,529.860535 381.422546,470.063629 418.811646,410.237488 
	C440.413452,375.672485 461.662079,340.884094 483.532928,306.490845 
	C497.837280,283.996368 529.174011,284.185089 543.705688,306.509583 
	C549.318665,315.132538 554.339050,324.141144 559.401367,333.461273 
	C558.408752,335.034210 557.592529,336.087433 556.887268,337.210327 
	C540.347839,363.542969 523.854248,389.904419 507.284027,416.217651 
	C470.159454,475.170837 432.984009,534.092041 395.859406,593.045288 
	C384.173431,611.602356 372.583466,630.219849 360.720703,648.924561 
	C360.388397,649.349365 360.284912,649.659241 360.033508,650.091858 
	C359.885590,650.214539 359.866394,650.598511 359.606445,650.744202 
	C359.214905,651.256165 359.083313,651.622375 358.692444,652.131836 
	C358.224884,652.817505 358.016571,653.359924 357.534393,654.089233 
	C356.875458,657.981079 359.735596,656.274353 361.050903,656.275024 
	C462.484589,656.325073 563.918274,656.287354 665.351990,656.256409 
	C667.309509,656.255798 669.267029,656.256287 672.348999,656.256287 
	C670.243225,653.281555 668.673279,651.063721 667.092407,648.891235 
	C667.081482,648.936646 667.170532,648.908447 667.115234,648.575256 
	C666.414124,647.334717 665.768311,646.427368 665.131348,645.354858 
	C665.140137,645.189636 664.865784,645.004700 664.813843,644.681885 
	C663.586853,642.819641 662.411804,641.280212 661.209717,639.808594 
	C661.182678,639.876465 661.328247,639.863098 661.302002,639.548645 
	C660.900757,638.757812 660.525696,638.281372 660.130859,637.862183 
	C660.110962,637.919495 660.232178,637.917358 660.196472,637.612488 
	C659.779175,636.858215 659.397522,636.408875 659.004944,635.977661 
	C658.993958,635.995850 659.035889,635.988831 658.993042,635.673218 
	C658.318420,634.539734 657.686584,633.721802 657.040894,632.939575 
	C657.027161,632.975220 657.103210,632.983093 657.077881,632.683472 
	C656.694336,631.930115 656.336243,631.476318 655.989075,631.011230 
	C656.000000,631.000000 655.976196,631.017578 655.958374,630.739136 
	C655.665039,630.234497 655.389526,630.008301 655.102234,629.855347 
	C655.090515,629.928528 655.238342,629.916504 655.206665,629.606323 
	C654.790039,628.844910 654.405029,628.393677 654.008179,627.968689 
	C653.996399,627.994934 654.053223,627.986267 654.015076,627.669678 
	C653.337524,626.536011 652.698120,625.718933 652.040771,624.940857 
	C652.022705,624.979858 652.103027,624.949280 652.056519,624.603882 
	C650.346680,621.823425 648.683350,619.388245 647.007385,616.973755 
	C646.994690,616.994446 647.042297,616.985107 647.010132,616.665649 
	C646.352600,615.514038 645.727234,614.681763 645.085205,613.898560 
	C645.068665,613.947571 645.171936,613.954407 645.138306,613.653442 
	C644.731812,612.905518 644.359009,612.458496 643.993103,612.005737 
	C644.000000,612.000000 643.987427,612.013306 643.970093,611.693726 
	C643.315430,610.554871 642.678162,609.735657 642.027710,608.950195 
	C642.014465,608.984009 642.086914,608.987244 642.037109,608.669250 
	C641.686646,608.065674 641.386047,607.780029 641.137756,607.351440 
	C641.190125,607.208374 640.955627,607.013916 640.962463,606.730347 
	C640.683228,606.227600 640.397217,606.008484 640.111694,605.845276 
	C640.112305,605.901184 640.214844,605.856567 640.137817,605.530029 
	C639.064026,603.764954 638.067322,602.326294 637.058655,600.926270 
	C637.046753,600.964905 637.127563,600.965698 637.078491,600.684387 
	C636.681213,599.975159 636.332886,599.547180 635.937012,598.769653 
	C630.725403,590.254944 625.561401,582.089905 620.303589,573.621399 
	C619.824341,572.846741 619.438965,572.375610 619.037537,571.939636 
	C619.021545,571.974854 619.098816,571.970947 619.046936,571.695618 
	C618.672729,571.249390 618.350464,571.078430 618.020569,570.944702 
	C618.013000,570.981934 618.082458,570.951233 617.878174,570.554565 
	C615.868042,570.016479 614.062317,569.755249 612.256226,569.752197 
	C594.139465,569.721375 576.022705,569.713013 557.905884,569.737305 
	C529.987732,569.774719 502.069550,569.842773 474.139587,569.545959 
	C474.619049,568.158447 475.007904,567.057861 475.616333,566.096252 
	C500.500946,526.766785 525.422180,487.460419 550.300537,448.126953 
	C563.979126,426.500671 577.589783,404.831451 591.231079,383.181641 
	C597.198792,392.371857 603.311768,401.471497 609.111450,410.766602 
	C657.460083,488.255066 705.747314,565.781860 754.062866,643.291077 
	C762.248840,656.423401 770.495422,669.517883 778.688965,682.645569 
	C788.853882,698.931458 787.593018,715.918579 775.175903,728.416077 
	C768.358032,735.278137 759.937256,738.129150 750.315369,738.118164 
	C697.670349,738.057800 645.025085,738.079468 592.379944,738.085022 
	C524.574402,738.092224 456.768860,738.110291 388.963318,738.128906 
	C387.631866,738.129272 386.300415,738.195068 384.527954,738.365601 
z"/>
<path fill="#039A92" opacity="1.000000" stroke="none" 
	d="
M357.808258,653.902344 
	C358.016571,653.359924 358.224884,652.817505 358.946106,651.979248 
	C359.594788,651.321838 359.730591,650.960144 359.866394,650.598511 
	C359.866394,650.598511 359.885590,650.214539 360.231323,649.952026 
	C360.802399,649.439087 360.926575,649.145813 360.949585,648.809692 
	C372.583466,630.219849 384.173431,611.602356 395.859406,593.045288 
	C432.984009,534.092041 470.159454,475.170837 507.284027,416.217651 
	C523.854248,389.904419 540.347839,363.542969 556.887268,337.210327 
	C557.592529,336.087433 558.408752,335.034210 559.484863,333.779236 
	C564.522888,340.765900 569.350769,347.857239 573.949951,355.093933 
	C579.718201,364.170197 585.298828,373.365662 591.095764,382.845642 
	C577.589783,404.831451 563.979126,426.500671 550.300537,448.126953 
	C525.422180,487.460419 500.500946,526.766785 475.616333,566.096252 
	C475.007904,567.057861 474.619049,568.158447 474.378052,569.875732 
	C475.764923,570.704468 476.901428,570.980164 478.038025,570.980286 
	C524.719482,570.986084 571.401001,570.967102 618.082458,570.951233 
	C618.082458,570.951233 618.013000,570.981934 618.119629,571.191895 
	C618.517090,571.591492 618.807922,571.781250 619.098816,571.970947 
	C619.098816,571.970947 619.021545,571.974854 619.049927,572.279907 
	C619.518005,573.031616 619.957703,573.478210 620.397400,573.924866 
	C625.561401,582.089905 630.725403,590.254944 635.972046,599.060547 
	C636.412415,600.122559 636.770020,600.544128 637.127563,600.965698 
	C637.127563,600.965698 637.046753,600.964905 637.033203,601.322754 
	C638.084656,603.072571 639.149780,604.464600 640.214844,605.856567 
	C640.214844,605.856567 640.112305,605.901184 640.158081,606.105957 
	C640.454407,606.545166 640.705017,606.779541 640.955627,607.013916 
	C640.955627,607.013916 641.190125,607.208374 641.191895,607.668579 
	C641.491455,608.414917 641.789185,608.701050 642.086914,608.987244 
	C642.086914,608.987244 642.014465,608.984009 642.014893,609.310303 
	C642.672668,610.428833 643.330017,611.221069 643.987427,612.013306 
	C643.987427,612.013306 644.000000,612.000000 644.021606,612.314697 
	C644.419373,613.071106 644.795654,613.512756 645.171936,613.954407 
	C645.171936,613.954407 645.068665,613.947571 645.052124,614.267273 
	C645.704468,615.386353 646.373413,616.185730 647.042297,616.985107 
	C647.042297,616.985107 646.994690,616.994446 647.006470,617.353760 
	C648.713196,620.125122 650.408081,622.537231 652.103027,624.949280 
	C652.103027,624.949280 652.022705,624.979858 652.023132,625.306946 
	C652.700134,626.418091 653.376648,627.202209 654.053223,627.986267 
	C654.053223,627.986267 653.996399,627.994934 654.020569,628.291260 
	C654.442627,629.030579 654.840454,629.473511 655.238342,629.916504 
	C655.238342,629.916504 655.090515,629.928528 655.149597,630.119995 
	C655.464539,630.546814 655.720337,630.782166 655.976196,631.017578 
	C655.976196,631.017578 656.000000,631.000000 656.014709,631.316711 
	C656.387329,632.083313 656.745239,632.533203 657.103210,632.983093 
	C657.103210,632.983093 657.027161,632.975220 657.021667,633.303894 
	C657.689392,634.417969 658.362671,635.203430 659.035889,635.988831 
	C659.035889,635.988831 658.993958,635.995850 659.020752,636.297974 
	C659.442444,637.039124 659.837341,637.478210 660.232178,637.917358 
	C660.232178,637.917358 660.110962,637.919495 660.101624,638.203369 
	C660.504272,638.945862 660.916260,639.404480 661.328247,639.863098 
	C661.328247,639.863098 661.182678,639.876465 661.132812,640.199341 
	C662.343872,642.016357 663.604858,643.510559 664.865784,645.004700 
	C664.865784,645.004700 665.140137,645.189636 665.098389,645.759399 
	C665.761292,647.188965 666.465942,648.048706 667.170532,648.908447 
	C667.170532,648.908447 667.081482,648.936646 667.052612,649.305054 
	C667.185486,651.276367 667.347229,652.879272 667.560547,654.993347 
	C665.485352,654.993347 663.686951,654.993347 661.888611,654.993347 
	C562.793091,654.993958 463.697571,655.001770 364.602081,654.949341 
	C362.337311,654.948181 360.072876,654.266602 357.808258,653.902344 
z"/>
<path fill="#12857F" opacity="1.000000" stroke="none" 
	d="
M435.537018,837.007263 
	C434.595703,837.312317 433.185425,837.871216 431.774689,837.872375 
	C376.702606,837.917664 321.630493,837.913818 266.558380,837.898682 
	C265.576172,837.898376 264.594025,837.682434 263.305237,837.289307 
	C320.355042,837.008057 377.711426,837.004517 435.537018,837.007263 
z"/>
<path fill="#19847B" opacity="1.000000" stroke="none" 
	d="
M357.534393,654.089233 
	C360.072876,654.266602 362.337311,654.948181 364.602081,654.949341 
	C463.697571,655.001770 562.793091,654.993958 661.888611,654.993347 
	C663.686951,654.993347 665.485352,654.993347 667.560547,654.993347 
	C667.347229,652.879272 667.185486,651.276367 667.063477,649.259644 
	C668.673279,651.063721 670.243225,653.281555 672.348999,656.256287 
	C669.267029,656.256287 667.309509,656.255798 665.351990,656.256409 
	C563.918274,656.287354 462.484589,656.325073 361.050903,656.275024 
	C359.735596,656.274353 356.875458,657.981079 357.534393,654.089233 
z"/>
<path fill="#15847C" opacity="1.000000" stroke="none" 
	d="
M617.878174,570.554565 
	C571.401001,570.967102 524.719482,570.986084 478.038025,570.980286 
	C476.901428,570.980164 475.764923,570.704468 474.389893,570.227539 
	C502.069550,569.842773 529.987732,569.774719 557.905884,569.737305 
	C576.022705,569.713013 594.139465,569.721375 612.256226,569.752197 
	C614.062317,569.755249 615.868042,570.016479 617.878174,570.554565 
z"/>
<path fill="#19847B" opacity="1.000000" stroke="none" 
	d="
M652.056519,624.603882 
	C650.408081,622.537231 648.713196,620.125122 647.019165,617.333130 
	C648.683350,619.388245 650.346680,621.823425 652.056519,624.603882 
z"/>
<path fill="#19847B" opacity="1.000000" stroke="none" 
	d="
M664.813843,644.681885 
	C663.604858,643.510559 662.343872,642.016357 661.159851,640.131470 
	C662.411804,641.280212 663.586853,642.819641 664.813843,644.681885 
z"/>
<path fill="#19847B" opacity="1.000000" stroke="none" 
	d="
M640.137817,605.530029 
	C639.149780,604.464600 638.084656,603.072571 637.045044,601.284180 
	C638.067322,602.326294 639.064026,603.764954 640.137817,605.530029 
z"/>
<path fill="#19847B" opacity="1.000000" stroke="none" 
	d="
M654.015076,627.669678 
	C653.376648,627.202209 652.700134,626.418091 652.041138,625.267944 
	C652.698120,625.718933 653.337524,626.536011 654.015076,627.669678 
z"/>
<path fill="#19847B" opacity="1.000000" stroke="none" 
	d="
M667.115234,648.575256 
	C666.465942,648.048706 665.761292,647.188965 665.089600,645.924622 
	C665.768311,646.427368 666.414124,647.334717 667.115234,648.575256 
z"/>
<path fill="#19847B" opacity="1.000000" stroke="none" 
	d="
M658.993042,635.673218 
	C658.362671,635.203430 657.689392,634.417969 657.035400,633.268188 
	C657.686584,633.721802 658.318420,634.539734 658.993042,635.673218 
z"/>
<path fill="#19847B" opacity="1.000000" stroke="none" 
	d="
M647.010132,616.665649 
	C646.373413,616.185730 645.704468,615.386353 645.068726,614.218262 
	C645.727234,614.681763 646.352600,615.514038 647.010132,616.665649 
z"/>
<path fill="#19847B" opacity="1.000000" stroke="none" 
	d="
M643.970093,611.693726 
	C643.330017,611.221069 642.672668,610.428833 642.028076,609.276489 
	C642.678162,609.735657 643.315430,610.554871 643.970093,611.693726 
z"/>
<path fill="#19847B" opacity="1.000000" stroke="none" 
	d="
M660.196472,637.612488 
	C659.837341,637.478210 659.442444,637.039124 659.031738,636.279785 
	C659.397522,636.408875 659.779175,636.858215 660.196472,637.612488 
z"/>
<path fill="#15847C" opacity="1.000000" stroke="none" 
	d="
M620.303589,573.621399 
	C619.957703,573.478210 619.518005,573.031616 619.065918,572.244751 
	C619.438965,572.375610 619.824341,572.846741 620.303589,573.621399 
z"/>
<path fill="#19847B" opacity="1.000000" stroke="none" 
	d="
M637.078491,600.684387 
	C636.770020,600.544128 636.412415,600.122559 636.019714,599.410156 
	C636.332886,599.547180 636.681213,599.975159 637.078491,600.684387 
z"/>
<path fill="#19847B" opacity="1.000000" stroke="none" 
	d="
M645.138306,613.653442 
	C644.795654,613.512756 644.419373,613.071106 644.014648,612.320435 
	C644.359009,612.458496 644.731812,612.905518 645.138306,613.653442 
z"/>
<path fill="#19847B" opacity="1.000000" stroke="none" 
	d="
M655.206665,629.606323 
	C654.840454,629.473511 654.442627,629.030579 654.032349,628.265015 
	C654.405029,628.393677 654.790039,628.844910 655.206665,629.606323 
z"/>
<path fill="#19847B" opacity="1.000000" stroke="none" 
	d="
M657.077881,632.683472 
	C656.745239,632.533203 656.387329,632.083313 656.003784,631.327942 
	C656.336243,631.476318 656.694336,631.930115 657.077881,632.683472 
z"/>
<path fill="#19847B" opacity="1.000000" stroke="none" 
	d="
M661.302002,639.548645 
	C660.916260,639.404480 660.504272,638.945862 660.121460,638.146118 
	C660.525696,638.281372 660.900757,638.757812 661.302002,639.548645 
z"/>
<path fill="#19847B" opacity="1.000000" stroke="none" 
	d="
M655.958374,630.739136 
	C655.720337,630.782166 655.464539,630.546814 655.161316,630.046753 
	C655.389526,630.008301 655.665039,630.234497 655.958374,630.739136 
z"/>
<path fill="#19847B" opacity="1.000000" stroke="none" 
	d="
M642.037109,608.669250 
	C641.789185,608.701050 641.491455,608.414917 641.139526,607.811646 
	C641.386047,607.780029 641.686646,608.065674 642.037109,608.669250 
z"/>
<path fill="#19847B" opacity="1.000000" stroke="none" 
	d="
M640.962463,606.730347 
	C640.705017,606.779541 640.454407,606.545166 640.157471,606.050049 
	C640.397217,606.008484 640.683228,606.227600 640.962463,606.730347 
z"/>
<path fill="#15847C" opacity="1.000000" stroke="none" 
	d="
M619.046936,571.695618 
	C618.807922,571.781250 618.517090,571.591492 618.127197,571.154663 
	C618.350464,571.078430 618.672729,571.249390 619.046936,571.695618 
z"/>
<path fill="#19847B" opacity="1.000000" stroke="none" 
	d="
M360.720703,648.924561 
	C360.926575,649.145813 360.802399,649.439087 360.379272,649.829346 
	C360.284912,649.659241 360.388397,649.349365 360.720703,648.924561 
z"/>
<path fill="#19847B" opacity="1.000000" stroke="none" 
	d="
M359.606445,650.744202 
	C359.730591,650.960144 359.594788,651.321838 359.205383,651.836060 
	C359.083313,651.622375 359.214905,651.256165 359.606445,650.744202 
z"/>
</svg>